<?xml version="1.0" encoding="UTF-8" standalone="no"?><!DOCTYPE svg PUBLIC "-//W3C//DTD SVG 1.1//EN" "http://www.w3.org/Graphics/SVG/1.1/DTD/svg11.dtd"><svg width="100%" height="100%" viewBox="0 0 256 256" version="1.1" xmlns="http://www.w3.org/2000/svg" xmlns:xlink="http://www.w3.org/1999/xlink" xml:space="preserve" xmlns:serif="http://www.serif.com/" style="fill-rule:evenodd;clip-rule:evenodd;stroke-linecap:round;stroke-linejoin:round;stroke-miterlimit:1.5;"><path d="M256,12.8l0,230.4c0,7.065 -5.735,12.8 -12.8,12.8l-230.4,0c-7.065,0 -12.8,-5.735 -12.8,-12.8l-0,-230.4c-0,-7.065 5.735,-12.8 12.8,-12.8l230.4,-0c7.065,-0 12.8,5.735 12.8,12.8Z" style="fill:#b5d5f9;"/><rect x="40.339" y="105.399" width="52.777" height="44.556" style="fill:#fff;stroke:#000;stroke-width:5.67px;"/><clipPath id="_clip1"><rect x="19.276" y="80.599" width="94.803" height="94.803"/></clipPath><g clip-path="url(#_clip1)"><g><path d="M105.191,90.968l0,7.406l-7.406,0l-0,-7.406l-62.214,-0l-0,7.406l-7.407,0l0,-7.406l-8.888,-0l0,74.064l8.888,0l0,-7.406l7.407,-0l-0,7.406l62.214,0l-0,-7.406l7.406,-0l0,7.406l8.888,0l-0,-74.064l-8.888,-0Zm-69.62,55.302l-7.407,0l0,-11.85l7.407,-0l-0,11.85Zm-0,-24.69l-7.407,0l0,-11.85l7.407,-0l-0,11.85Zm40.752,8.28l-18.837,11.246c-0.139,0.081 -0.306,0.087 -0.445,0.006c-0.136,-0.078 -0.223,-0.226 -0.223,-0.388l0,-22.486c0,-0.159 0.087,-0.306 0.223,-0.387c0.139,-0.075 0.306,-0.073 0.445,0.005l18.837,11.249c0.134,0.075 0.215,0.223 0.215,0.376c-0,0.157 -0.081,0.301 -0.215,0.379Zm28.868,16.41l-7.406,0l-0,-11.85l7.406,-0l0,11.85Zm0,-24.69l-7.406,0l-0,-11.85l7.406,-0l0,11.85Z" style="fill:#4b4b4b;fill-rule:nonzero;"/></g></g><g><rect x="133.663" y="92.466" width="87.661" height="69.75" style="fill:#fff;stroke:#000;stroke-width:5.67px;"/><g><path d="M128,87.619l-0,80.762l102.138,-0l0,-80.762l-102.138,0Zm32.955,14.438c5.613,-0 10.162,4.549 10.162,10.16c0,5.613 -4.549,10.163 -10.162,10.163c-5.611,-0 -10.161,-4.55 -10.161,-10.163c0,-5.611 4.55,-10.16 10.161,-10.16Zm-22.533,53.016l14.955,-22.787c0.858,-1.306 2.275,-2.137 3.834,-2.249c1.558,-0.111 3.078,0.511 4.111,1.683l8.91,10.098l16.147,-24.569c0.925,-1.408 2.495,-2.258 4.182,-2.258c1.685,-0.002 3.258,0.844 4.186,2.251l24.967,37.831l-81.292,0l0,0Z" style="fill:#4b4b4b;fill-rule:nonzero;"/></g></g></svg>